<svg width="67" height="59" viewBox="0 0 67 59" fill="none" xmlns="http://www.w3.org/2000/svg">
<path fill-rule="evenodd" clip-rule="evenodd" d="M42.1576 1.23736V12.8978C42.1576 13.0453 42.0722 13.1734 41.9476 13.2103L38.8285 14.1669C38.7053 14.2054 38.6185 14.3336 38.6185 14.4794V17.8956C38.6185 18.1104 38.7977 18.2658 38.9783 18.2081L41.7992 17.3076C41.9798 17.2499 42.159 17.4053 42.159 17.62V20.8568C42.159 21.0715 42.3382 21.227 42.5188 21.1693L45.4936 20.2191C45.6154 20.1806 45.7008 20.0524 45.7008 19.9066V0.324005C45.7008 0.110889 45.5244 -0.0445431 45.3439 0.01154L42.369 0.923291C42.2458 0.961748 42.159 1.08994 42.159 1.23576L42.1576 1.23736ZM34.7267 7.2735L31.8988 8.14039C31.7196 8.19487 31.5419 8.04104 31.5419 7.82792V4.67606C31.5419 4.46294 31.3655 4.30751 31.1849 4.36359L28.21 5.27534C28.0868 5.3138 28 5.44199 28 5.58781V25.2089C28 25.4236 28.1792 25.579 28.3598 25.5213L31.3347 24.5711C31.4565 24.5327 31.5419 24.4045 31.5419 24.2587V12.5918C31.5419 12.446 31.6259 12.3194 31.749 12.2793L34.8751 11.281C34.9969 11.2426 35.0823 11.1144 35.0823 10.9686V7.58436C35.0823 7.37125 34.9059 7.21582 34.7253 7.2719L34.7267 7.2735ZM35.0781 14.936V11.4749V11.4733C35.0781 11.3275 35.1649 11.1993 35.2881 11.1608L38.263 10.2491C38.4436 10.193 38.62 10.3484 38.62 10.5615V13.9858C38.62 14.1316 38.5346 14.2598 38.4128 14.2983L35.4379 15.2485C35.2573 15.3062 35.0781 15.1507 35.0781 14.936ZM7 11.5711V14.9505C7 15.1636 7.17639 15.319 7.35699 15.263L13.7211 13.3113C13.9003 13.2568 14.0781 13.4106 14.0781 13.6237V28.9793C14.0781 29.1924 14.2545 29.3478 14.4351 29.2917L17.4072 28.38C17.5304 28.3415 17.6172 28.2133 17.6172 28.0675V12.3643C17.6172 12.2168 17.7026 12.0887 17.8272 12.0518L24.4839 10.0104C24.6071 9.97192 24.6939 9.84373 24.6939 9.69791V6.31851C24.6939 6.10539 24.5175 5.94996 24.3369 6.00605L7.20999 11.2586C7.0868 11.2971 7 11.4253 7 11.5711ZM48.4372 23.7842L52.9049 45.896L57.2985 44.737L52.8309 22.6252L48.4372 23.7842ZM57.4115 21.4168L56.3686 33.6366L62.0349 43.4875L66.3351 42.3531L60.731 32.4857L61.7428 20.2742L57.4115 21.4168ZM35.2076 44.0765L33.1078 33.684C32.8822 32.5679 33.1199 31.3074 33.8207 29.9025C34.7608 28.0575 36.1843 26.8724 38.0912 26.3471L38.9911 30.8011C38.1436 31.0468 37.6806 31.6791 37.602 32.698C37.5902 32.8564 37.5908 32.9672 37.6035 33.0303L39.6012 42.9175C39.7756 43.7809 40.3622 44.2472 41.3608 44.3165C41.5148 44.3203 41.6229 44.3139 41.6852 44.2975L42.5915 48.783C41.4074 49.0954 40.1361 48.976 38.7775 48.425C36.8395 47.6053 35.6496 46.1558 35.2076 44.0765ZM44.3053 48.3309L43.399 43.8454C43.7314 43.7577 44.0692 43.48 44.4123 43.0125C44.7347 42.5503 44.8552 42.0638 44.7738 41.5529L42.7762 31.6658C42.6996 31.2868 42.4422 30.9332 42.0039 30.6052C41.5992 30.3349 41.1558 30.2522 40.6738 30.3572L39.7739 25.9033C41.872 25.3498 43.7398 25.8219 45.3771 27.3198C46.317 28.1809 46.8805 29.0748 47.0677 30.0014L49.1675 40.3939C49.6398 42.7314 48.9731 44.7927 47.1676 46.5777C46.215 47.4944 45.2609 48.0788 44.3053 48.3309ZM16.7796 37.9913L18.8794 48.3839C19.3214 50.4632 20.5114 51.9127 22.4494 52.7323C23.8079 53.2834 25.0793 53.4027 26.2634 53.0904L25.3571 48.6048C25.2947 48.6213 25.1866 48.6276 25.0327 48.6238C24.0341 48.5546 23.4475 48.0882 23.2731 47.2248L21.2754 37.3377C21.2626 37.2745 21.2621 37.1637 21.2739 37.0054C21.3525 35.9865 21.8155 35.3542 22.663 35.1084L21.763 30.6545C19.8561 31.1797 18.4326 32.3648 17.4926 34.2099C16.7918 35.6147 16.5541 36.8752 16.7796 37.9913ZM27.0709 48.1527L27.9772 52.6382C28.9328 52.3862 29.8869 51.8018 30.8395 50.885C32.645 49.1 33.3116 47.0388 32.8393 44.7012L30.7396 34.3087C30.5523 33.3821 29.9888 32.4883 29.049 31.6271C27.4116 30.1293 25.5439 29.6571 23.4457 30.2106L24.3456 34.6645C24.8277 34.5596 25.2711 34.6422 25.6758 34.9125C26.114 35.2406 26.3714 35.5941 26.448 35.9732L28.4457 45.8603C28.5271 46.3712 28.4065 46.8577 28.0842 47.3198C27.741 47.7874 27.4033 48.065 27.0709 48.1527ZM0.200684 36.509L4.66833 58.6207L9.03081 57.4699L4.56316 35.3582L0.200684 36.509ZM9.95961 53.1325L10.7446 57.0178L11.4925 56.8205C13.2375 56.3602 14.598 55.5133 15.5742 54.2798C16.7527 52.749 17.1357 50.9622 16.723 48.9194C16.6761 48.6878 16.6168 48.4484 16.545 48.2011C15.9836 46.3973 15.009 45.2015 13.6212 44.6138C13.741 44.4491 13.8692 44.2711 14.0056 44.0799C14.8768 42.6523 15.1274 41.0224 14.7572 39.1903C14.5232 38.032 14.0486 37.0371 13.3336 36.2054C11.8283 34.4952 9.72543 33.9963 7.02485 34.7088L6.27699 34.906L7.06202 38.7914L7.21783 38.7503C7.73717 38.6133 8.23837 38.6031 8.72142 38.7196C9.671 38.9793 10.25 39.6251 10.4585 40.657C10.5351 41.036 10.5369 41.4237 10.4638 41.8201C10.2318 42.946 9.53411 43.6624 8.37078 43.9693L8.12149 44.035L8.90014 47.8888L9.14943 47.8231C9.648 47.6915 10.1284 47.6868 10.5907 47.8088C11.5153 48.0529 12.0839 48.7014 12.2966 49.7544C12.369 50.1124 12.3665 50.479 12.2891 50.8543C12.0864 52.0169 11.3618 52.7626 10.1154 53.0914L9.95961 53.1325Z" fill="#EFEFEF"/>
</svg>
